<svg id="Layer_1" data-name="Layer 1" xmlns="http://www.w3.org/2000/svg" viewBox="0 0 137.36 151.97"><defs><style>.cls-1{fill:#e98c33;}.cls-2{fill:#fcca78;}.cls-3{fill:#fff;}</style></defs><title>dislike button</title><rect class="cls-1" y="11.97" width="137.36" height="140" rx="27.75"/><rect class="cls-2" width="137.36" height="140" rx="27.75"/><path class="cls-3" d="M93.83,122.23a6.19,6.19,0,0,1-3.77-2.62,8.72,8.72,0,0,1-1.58-4.87A21.21,21.21,0,0,1,89.61,108c.56-1.9,1.18-3.78,1.68-5.69a8,8,0,0,0,.15-4,3.47,3.47,0,0,0-3.21-2.82,20.21,20.21,0,0,0-3.39.08c-1.43.15-2.84.39-4.26.62-1.72.28-3.44.63-5.17.87A21.5,21.5,0,0,1,68,97a7.93,7.93,0,0,1-2.27-.88,3.3,3.3,0,0,1-1.53-3.65c.18-.78.47-1.53.72-2.29,0-.12.09-.23.12-.35a1.06,1.06,0,0,0-.52-1.4c-.79-.54-1.61-1-2.37-1.62a4.77,4.77,0,0,1-.94-6.29,5.93,5.93,0,0,1,2.15-1.66c1-.59,1.08-1,.23-1.84A15.36,15.36,0,0,1,61.74,75a3.85,3.85,0,0,1,0-4.39,6.09,6.09,0,0,1,1.85-1.54c.37-.23.75-.45,1.11-.7a1.42,1.42,0,0,0,.45-2.15c-.21-.34-.46-.65-.67-1a3.05,3.05,0,0,1,.44-4.06,11.53,11.53,0,0,1,4.4-2.7,32.27,32.27,0,0,1,8-1.74,62.54,62.54,0,0,1,9-.28c2.57.1,5.14.24,7.7.47a45.49,45.49,0,0,1,12.08,2.54c1.83.69,3.64,1.46,5.47,2.17a19,19,0,0,0,5.37,1.2c.9.06,1.8.1,2.73.15V86.33c-.63.08-1.25.13-1.86.25a6.06,6.06,0,0,0-4,2.84c-.74,1.13-1.4,2.31-2.08,3.48A24.46,24.46,0,0,1,108.53,97a43.68,43.68,0,0,0-4.74,6.63,61.64,61.64,0,0,0-4.33,8.49,38.88,38.88,0,0,0-2.19,6.81,7.52,7.52,0,0,1-.29,1,3.2,3.2,0,0,1-2.33,2.29Z" transform="translate(-22.21 -15.03)"/></svg>