<svg id="Feitensmijter_logo" data-name="feitensmijter_layer" xmlns="http://www.w3.org/2000/svg" viewBox="0 0 566.22 287"><defs><style>.cls-1{fill:#217d9d;}.cls-2{fill:#3cb5ab;}.cls-3{fill:#fcca78;}</style></defs><title>Feitensmijter logo RGB</title><path class="cls-1" d="M141.11,184.35A365.22,365.22,0,0,0,83,203c-2.91,1.22-5.77,2.55-9.08,4,.27-6.34.51-12.26.79-18.19,0-.32.35-.61.44-.94.37-1.27,1-2.57,1-3.82-.09-1.8.49-2.49,2.21-2.83,6.54-1.27,13-2.69,19.57-4,3.4-.68,4.5-2,4-5.48q-1.94-13.36-4-26.7a3.5,3.5,0,0,0-3.36-3.26,47.19,47.19,0,0,0-7.23.22c-16.19,1.81-32.07,4.95-47.19,11.26a2.35,2.35,0,0,1-1,.25c-1.69-.2-2.15.87-2.2,2.19a72.92,72.92,0,0,0-.11,8.49c1.13,14,2.52,28,5.8,41.67a113.17,113.17,0,0,0,5,15.3c1.71,4.3,5.33,6.38,10,6.33,3.76,0,7.59.08,11.24-.62,10.57-2,21.08-4.42,31.6-6.72,6.3-1.37,12.57-2.85,18.86-4.29,1.86-.43,2.7.26,2.52,2.18s-.21,4.12-.54,6.14c-1.16,7-2.33,14-5.85,20.33-1.85,3.31-4.5,5.52-8.29,6-6.26.78-12.52,1.67-18.8,2-7.93.43-15.89.34-23.83.52-4.28.1-6.27,2.12-5.68,6.33A85.84,85.84,0,0,0,61.32,271c.82,2.88,2.26,3.59,5.29,3.45,5.88-.28,11.76-.75,17.64-.81,13.2-.13,26.4.17,39.59-.17a192.33,192.33,0,0,0,20.69-2.11,6.81,6.81,0,0,0,5.94-5.9,47.88,47.88,0,0,0,1.07-7.78q.54-27.24.84-54.47a83,83,0,0,0-.86-11.45C150.55,184.4,148.22,182.68,141.11,184.35Z" transform="translate(-36.68 -23.1)"/><path class="cls-1" d="M265.92,257.2q-5.46-29.92-10.93-59.85c-.78-4.25-1.74-8.47-2.79-12.67-.59-2.41-2-4.49-4.74-4.46-6.16.05-12.35.14-18.49.65-4.1.34-5.3,1.93-5.94,6-1.9,12.05-3.78,24.1-5.71,36.14a3.49,3.49,0,0,1-.93,2.18c-1.19.79-3.93-.42-4.3-1.85-1.33-5.29-2.67-10.58-3.82-15.91-1.42-6.59-2.67-13.21-5.53-19.39-1.6-3.47-4-5.33-8-5-7.14.57-14.28,1-21.43,1.48-.46,0-1,.2-1.38,0-1.59-1-1.84.14-2,1.27a15.13,15.13,0,0,0-.13,2.13c-.43,16.52-.73,33.06-1.33,49.58-.39,10.48-1.19,21-1.86,31.42-.19,3,.56,4.93,3.37,5.6a138.31,138.31,0,0,0,14.19,2.43A4.82,4.82,0,0,0,189,274a11.64,11.64,0,0,0,1.36-3.56c.69-4.77,1.33-9.55,1.75-14.34.36-4.05.38-8.13.56-12.2l.38-.08c.65,1.83,1.32,3.66,2,5.5,2.74,7.91,5.4,15.85,9.73,23.1,1.44,2.42,3.33,4.08,6.22,4.18,2.54.09,5.09.09,7.62-.07,5.31-.33,8.72-3.16,10-8.31,1.17-4.67,2.2-9.38,3.13-14.11.55-2.82.78-5.7,1.18-8.72.26.29.39.37.43.48q4.44,15.22,8.85,30.44c.79,2.77,1.83,3.94,4.6,3.67,6.35-.62,13,.48,18.76-3.71,2.25-1.65,3.39-2.62,2.92-5.48C267.67,266.24,266.75,261.73,265.92,257.2Z" transform="translate(-36.68 -23.1)"/><path class="cls-1" d="M583.62,271.82c-7-13.79-15.34-26.68-26.43-37.62-3.69-3.64-7.17-7.48-10.72-11.24a4,4,0,0,1-.65-5c3.06-5.93,5.85-12,9-17.86,4.69-8.77,9.55-17.45,12.21-27.1a86.38,86.38,0,0,0,2.7-13.3c.5-4.47-1.68-7-6.13-7.67-3.28-.52-6.62-.76-9.94-1-15.22-1-30.34-.45-45.25,3.14-2.88.69-5.7,1.69-8.6,2.25-1.93.37-3.1,1.54-2.69,3.44a16.57,16.57,0,0,1,.31,1.87c.78,7,1.46,14.1,2.33,21.14,1.15,9.29,2.61,18.54,3.63,27.84s1.55,18.37,2.48,27.54,2.11,18.6,3.17,27.9c.4,3.52.74,7.05,1.15,10.57.39,3.31,1.44,4.44,4.66,4.73a61.77,61.77,0,0,0,6.8.19c4.37-.07,6.86-1.77,7.8-6.08a77.09,77.09,0,0,0,1.62-12.4c.27-5.13.07-10.29.07-15.43,4.29,7.25,8.59,14.25,12.61,21.4,2.32,4.13,4.22,8.5,6.23,12.8,1.13,2.4,2.55,4.3,5.52,4.19,9-.32,18-.92,26.76-3.24,1.82-.48,3.27-1.58,3-3.54C585,276.78,584.76,274,583.62,271.82Zm-63.31-97.9c7.82.7,15.64,1.38,23.87,2.1a203.18,203.18,0,0,1-23,25.48l-.6-.27q-.42-6.14-.82-12.25c-.3-4.45-.56-8.91-.88-13.36C518.83,174.55,518.94,173.8,520.31,173.92Z" transform="translate(-36.68 -23.1)"/><path class="cls-2" d="M432.82,129.35c.84,1.19,1.42,1.9,1.89,2.67,4.51,7.47,8.94,15,13.52,22.4,2.27,3.66,4.77,7.19,7.27,10.71a6.1,6.1,0,0,0,5.59,2.44c4.53-.15,9.08-.25,13.61-.19,5.1.07,7.14-1.22,7.8-6.34,1.21-9.35,2.39-18.72,3-28.12.71-11.54.75-23.12,1.14-34.68.31-9.29.62-18.58,1.11-27.85.18-3.38-1-5.62-4.08-6.91a70.26,70.26,0,0,0-6.89-2.77c-4.37-1.29-7.36-.09-9.43,3.94a25,25,0,0,0-2.65,7.58c-1.61,11.15-3,22.33-4.35,33.52-.48,4.06-.54,8.17-.79,12.25H459c-.42-1.19-.82-2.4-1.28-3.57-4.56-11.61-9.07-23.24-13.72-34.81-1.77-4.4-4.12-8.58-5.74-13-1.08-3-2-5.94-4.41-8.07a4.84,4.84,0,0,0-2.75-1.31c-7.44-.11-14.87,0-22.3-.07-1.64,0-1.85.86-1.75,2.19.42,5.15,1,10.3,1.15,15.46.55,23.76.94,47.53,1.45,71.29.11,5.25.33,10.5.74,15.72.22,2.87,1.39,4.06,4.25,4.5a81.34,81.34,0,0,0,9.1.79c4.83.19,6.72-1.27,7.64-6a87.51,87.51,0,0,0,1.44-22.45C432.65,135.7,432.82,132.78,432.82,129.35Z" transform="translate(-36.68 -23.1)"/><path class="cls-1" d="M491.56,248.81c-3.54.09-7.1.2-10.62.64-5.76.71-11.48,1.77-17.25,2.51-1.09.14-2.91-.18-3.32-.9-2.61-4.53-3.45-9.63-4.43-15,1.3.08,2.27.16,3.24.19,6.87.23,13.75.52,20.62.62,3.24,0,5.21-1.32,5.83-4.25.95-4.49,1.69-9.05,2.19-13.62.33-3.07-1.55-4.54-4.68-4.14-1.83.23-3.64.57-5.46.86l-18.49,2.89a3.13,3.13,0,0,1-4-2.83c-.53-3-.91-6-1.42-9-.28-1.61.35-2.23,1.92-2.19,3.19.09,6.38.15,9.57.21,6.31.11,12.62.28,18.93.29a4.72,4.72,0,0,0,4.94-4.17,88.17,88.17,0,0,0,1.37-12.43c.09-3.81-2.11-6.2-5.82-7.11a30.61,30.61,0,0,0-5.25-.75c-7.92-.55-15.84-1.12-23.77-1.53-6-.32-12.05-.45-18.08-.57-2.3,0-3.94,1.26-4,3,0,2.25,0,4.51.13,6.76.26,4,.76,8.05.92,12.09.5,12.82.82,25.66,1.34,38.49.48,12.18,1.16,24.36,1.65,36.55.19,4.51.89,5.43,5.45,5.06,8.83-.72,17.64-1.68,26.47-2.41,5.87-.48,11.75-.69,17.62-1.12,5.1-.37,8.61-3.06,8.84-7.27.3-5.58.24-11.19.08-16.78C496.08,250,494.48,248.73,491.56,248.81Z" transform="translate(-36.68 -23.1)"/><path class="cls-2" d="M180.77,174.87c10.5.15,21,.16,31.51.16,5.1,0,10.22,0,15.32-.27,4.4-.22,6.62-2.37,7.06-6.75.42-4.16.67-8.35.76-12.53.09-3.75-1.07-4.73-4.77-4.25-6.75.88-13.49,1.86-20.24,2.77-2.27.31-4.56.53-7.51.87,1.48-5.82,2.84-11,4.12-16.22.59-2.38,2.1-3.37,4.44-3.47s4.95-.36,7.43-.48c6.17-.29,12.34-.51,18.5-.83,3.28-.17,5.15-1.28,5.35-3.84a159.12,159.12,0,0,0,.65-17.59c-.15-4.3-1.82-5.19-6.07-4.57-7.3,1.06-14.6,2.17-21.91,3.16-3.12.42-6.27.61-9.78.94,1.2-6.47,2.26-12.25,3.34-18,.57-3.06.93-3.49,4.1-3.9,3.94-.51,7.89-.91,11.85-1.26,5.37-.49,10.76-.73,16.1-1.39,3.71-.46,5.24-1.91,5.55-5.65a141.53,141.53,0,0,0,.35-15.69c-.08-3-1.49-3.94-4.47-3.87-5.25.12-10.5.16-15.74.5-12.58.82-25.14,1.81-37.71,2.7-1.32.09-1.67.71-1.64,1.92.06,3.1.2,6.22,0,9.31-.53,8.92-1.06,17.85-1.88,26.75-.9,9.67-1.78,19.36-3.3,28.94-1.91,12-4.45,24-6.72,35.95C174.51,173.28,175.59,174.79,180.77,174.87Z" transform="translate(-36.68 -23.1)"/><path class="cls-2" d="M333.3,87.39q-.26,36.51-.53,73a44.41,44.41,0,0,0,.17,4.47,5.45,5.45,0,0,0,4.45,5.29,21.37,21.37,0,0,0,5.67.69c8.71-.36,17.42-.94,26.13-1.33,7-.32,14-.79,21-.58,2.75.08,3.55-1.13,4.13-3a90.57,90.57,0,0,0,2.45-9.46,19.37,19.37,0,0,0,.12-5.69,3.71,3.71,0,0,0-3.95-3.42,19.89,19.89,0,0,0-3.17.23c-5.27.72-10.51,1.71-15.8,2.15-5.08.43-10.2.31-15.3.42-1.59,0-2.32-.71-2.22-2.35.2-3.26.35-6.52.47-9.78.05-1.52.76-2.14,2.27-2.09,4.18.13,8.37.24,12.55.3,6.66.11,13.33.44,20,.14,4.6-.2,6.83-2.59,7.82-7.1,1.36-6.25.35-12.44-.88-18.56-.47-2.35-1.93-3.07-4.3-2.71-.84.13-1.66.33-2.5.49l-35.61,6.73a42.21,42.21,0,0,0,.42-4.43c0-3.1,1.58-4.61,4.47-5.18,6.67-1.33,13.33-2.75,20-4.08,3.89-.78,7.82-1.38,11.7-2.21,3.18-.68,4.82-2.23,4.44-4.78-.74-5-1.85-10-2.94-15-.39-1.79-1.82-2.39-3.62-2.13-8.63,1.26-17.25,2.54-25.89,3.75q-14.83,2.07-29.68,4C333.66,85.35,333.3,86,333.3,87.39Z" transform="translate(-36.68 -23.1)"/><path class="cls-3" d="M600.31,70.77c-2.14-11.92-5.94-23.26-13.39-33-8.41-11-19.4-16.34-33.42-14.17a93.44,93.44,0,0,0-33.29,11.8c-6.31,3.7-11.88,8.28-14.34,15.41a72.94,72.94,0,0,0-3.76,15.42c-1.43,12.5.08,25,2,37.3,1.61,10.17,2,19.85-3.09,29.17a8.13,8.13,0,0,0-.82,3c-.18,1.83.85,2.84,2.69,2.7a13.51,13.51,0,0,0,2.7-.56c4.36-1.24,8.7-2.58,13.08-3.72,5.18-1.35,10.45-2.45,15.71-.64a67,67,0,0,0,23.52,3.19c5.15-.51,10.33-.84,15.44-1.58,6.82-1,13.25-3,18.46-7.93,7-6.6,10.15-14.84,10.83-24.25C603.44,92.09,602.21,81.39,600.31,70.77ZM539,54.22c.92-7,6.7-10.08,12.32-10.54a3.58,3.58,0,0,1,2.74,2,44.65,44.65,0,0,1,2.35,9.86A96.07,96.07,0,0,1,552.79,89,3.34,3.34,0,0,1,551,90.76a48,48,0,0,1-4.71,1.62c-.53-2.58-1-5-1.51-7.4-1.78-7.79-3.68-15.57-5.34-23.39A22.11,22.11,0,0,1,539,54.22Zm7,51.85a2.58,2.58,0,0,1,1.79-1.23c4.21-.73,8.85,3.66,8.45,7.91-.28,3-3.28,5.29-6.94,5.29a4.92,4.92,0,0,1-5.1-5.52A23.55,23.55,0,0,1,546,106.07Z" transform="translate(-36.68 -23.1)"/><path class="cls-2" d="M270.26,83.67c4.8-.44,9.58-1.08,14.38-1.52,4.64-.42,9.29-.7,14-1.05-.32,8.44-.84,16.3-.85,24.16,0,16.6.25,33.2.4,49.8.05,5.32,0,10.64.23,15.95.12,3.05,1.57,4.27,4.6,3.85,5.48-.77,10.92-1.74,16.35-2.75a4.53,4.53,0,0,0,3.88-4.47,62.16,62.16,0,0,0,.17-7.22c-.62-14.67-1.44-29.33-1.93-44-.32-9.55-.31-19.12-.2-28.68.06-4.52,1.49-5.64,6-5.82a20.2,20.2,0,0,0,2.33-.23c8.83-1.34,17.65-2.74,26.48-4,6.76-1,7.25-1.49,6.32-8.25-.57-4.14-1.17-8.29-2-12.37-.63-2.94-1.83-3.35-4.66-2.53a25.66,25.66,0,0,1-4.78.8c-2.19.2-4.39.19-6.59.35q-9.12.69-18.23,1.43c-13.36,1.07-26.72,2.18-40.08,3.21-6,.46-12,.85-18,1.07-1.43.06-2.43-.23-2.37,1.73.16,5.6.13,11.21.32,16.81C266.06,83.07,267.13,84,270.26,83.67Z" transform="translate(-36.68 -23.1)"/><path class="cls-1" d="M352.09,202.18A73.84,73.84,0,0,0,348.67,183a2.89,2.89,0,0,0-3-2.27c-10.63.39-21.26.75-31.88,1.32-1.23.07-3.61-.33-3.39,2.48.38,4.87.49,9.77.91,14.65.3,3.34,1.31,4,4.69,4.16,2,.06,4.07.21,6,.31.22,2.12.38,3.95.59,5.78.6,5.35,1.32,10.7,1.81,16.06,1.53,16.72,1.92,33.57,5.73,50a4.72,4.72,0,0,1-.88,3.86,17,17,0,0,1-6.06,4,132.86,132.86,0,0,1-45.3,6c-1.81-.07-2.94.55-3,2.41-.16,3.47-.38,6.94-.3,10.41.09,3.72,1.32,5,5,5.71,12.42,2.49,24.86,3.21,37.38.64,8.78-1.81,17.39-4,25.32-8.42,7.05-3.95,9.65-10.1,9.4-17.73-.2-6-.6-12-1.12-18q-1.71-19.82-3.66-39.61c-.57-6-1.33-11.94-2-18,1.32-.26,2.85-.5,4.34-.87A3.45,3.45,0,0,0,352.09,202.18Z" transform="translate(-36.68 -23.1)"/><path class="cls-1" d="M426,183.93c-.57-3.29-1.3-4.13-4.64-4.52-5-.58-10.05-1.47-15-1.24-12.53.59-25,1.7-37.55,2.68-4.27.33-8.52,1.39-12.79-.09-.31-.11-1.13.52-1.32,1a5,5,0,0,0-.14,2.09c.31,5.38.71,10.76,1,16.15.21,4.16,1.54,5.21,5.7,4.39a34.85,34.85,0,0,1,6.49-1.06c7,0,5.57-1.06,6.5,5.29,1.18,8.19,1.79,16.48,2.28,24.76.83,14.16,1.4,28.33,2,42.5.16,3.59,1.39,5.53,5,6.08a66.76,66.76,0,0,0,11.2.87c4.52-.05,6.43-1.94,6.91-6.44a66.9,66.9,0,0,0,.5-10.19c-.52-11-1.26-22-1.9-32.93-.48-8.2-.3-16.47-2.85-24.92,3.3-.72,6.37-1.58,9.51-2,4.9-.71,9.85-1.19,14.79-1.69,4.75-.49,6.35-2.21,6.32-7a18.12,18.12,0,0,0-.16-2.33C427.2,191.49,426.65,187.7,426,183.93Z" transform="translate(-36.68 -23.1)"/><path class="cls-2" d="M180.89,113.68c.45-2.89,1.24-5.78.18-8.74-.62-1.73-.95-3.56-1.42-5.34-.64-2.41-1.67-3-4.05-2.38l-36.07,9.89c-1.89.52-3.79,1-5.76,1.55-.5-3.19-1-6.1-1.34-9A2.18,2.18,0,0,1,133.61,98a41.3,41.3,0,0,1,5.82-2q18.73-4.83,37.5-9.54a4.21,4.21,0,0,0,3.6-4.31c.18-3.61.46-7.23.47-10.84,0-5.26-2.17-7.14-7.34-6.29-4.4.73-8.78,1.65-13.13,2.66-9.52,2.2-19,4.58-28.54,6.76-6.34,1.44-12.8,2.42-19.1,4-4.49,1.16-4.42,1.48-4.38,6,0,1.63.11,3.26.16,4.89.38,12,.86,24,1.12,35.95.24,10.78,0,21.57.43,32.34.2,5.56,1.39,11.07,1.88,16.63.21,2.39,1.77,2,3,1.78,4.58-.93,9.1-2.13,13.66-3.13a4.61,4.61,0,0,0,4.07-4.66c.55-7.78,1.31-15.54,1.72-23.33.26-4.93.05-9.88.05-15.34,10-3,20.58-6.14,31.06-9.4,4.51-1.41,8.95-3.09,13.38-4.77C179.79,115.18,180.79,114.37,180.89,113.68Z" transform="translate(-36.68 -23.1)"/><path class="cls-1" d="M278.34,278.39c3.73-.42,7.44-1.12,11.18-1.36,8.47-.53,17-.56,25.3-2.61a3.07,3.07,0,0,0,2-1.49,13.58,13.58,0,0,0,.75-4.95,40.27,40.27,0,0,0-1.37-6.65c-.84-3.32-1.46-3.77-4.9-3.68-2.81.08-5.62.28-8.42.42-4.44-17.86-6.27-36.17-12.4-53.42,4-.53,7.63-.94,11.26-1.52,3-.49,3.78-1.38,3.3-4.32-.77-4.82-1.72-9.63-2.82-14.39-.92-4-1.86-4.34-5.92-3.7-3.78.6-7.57,1.16-11.37,1.45-4.67.35-9.36.36-14,.61-3.76.21-7.5.56-10.8,2.68-1,.65-1.84,1.21-1.33,2.67,1.46,4.22,2.84,8.47,4.23,12.71.92,2.8,1.29,3.09,4.28,3,2.52-.12,5.05-.28,7.62-.42q5.75,28.5,11.39,56.44c-3.47.18-6.58.24-9.66.53-2.9.26-3.72,1.17-3.68,4.12.05,3.33.25,6.66.51,10S274.93,278.77,278.34,278.39Z" transform="translate(-36.68 -23.1)"/><path class="cls-2" d="M249.42,120.27c2.47-.08,4.93-.3,8-.5.38,11.49.76,22.85,1.15,34.41-4.14-.28-7.73-.63-11.33-.73s-4.54.65-5.13,4.25c-.75,4.61-1.31,9.27-1.83,13.91-.43,3.86.8,5.33,4.73,5.75,11,1.16,22,.31,32.93-.61a23.19,23.19,0,0,0,4.13-1,6.79,6.79,0,0,0,5.38-5.91c.54-3.57.91-7.17,1.37-10.75a3.12,3.12,0,0,0-2.78-3.84,64.94,64.94,0,0,0-7.36-.94c-2.76-.21-3.09-.57-2.73-3.32s.68-5.77.93-8.66q.88-10.29,1.67-20.57a2.36,2.36,0,0,1,2.31-2.5c2.17-.31,4.33-.75,6.49-1.16,4.25-.82,6-2.64,6.1-6.89q.29-9.47.24-19c0-4.19-1-4.91-5.23-4.39s-8.58,1.06-12.88,1.61c-8.22,1.06-16.45,2.15-24.68,3.2-1.42.18-2.24.65-2.36,2.33-.56,7.49-1.3,15-1.9,22.46C246.45,119.51,247.31,120.33,249.42,120.27Z" transform="translate(-36.68 -23.1)"/></svg>