<svg id="Layer_1" data-name="Layer 1" xmlns="http://www.w3.org/2000/svg" viewBox="0 0 137.36 151.97"><defs><style>.cls-1{fill:#e98c33;}.cls-2{fill:#fcca78;}.cls-3{fill:#fff;}</style></defs><title>like button</title><rect class="cls-1" y="11.97" width="137.36" height="140" rx="27.75"/><rect class="cls-2" width="137.36" height="140" rx="27.75"/><path class="cls-3" d="M89.22,50.44A6.21,6.21,0,0,1,93,53.06a8.85,8.85,0,0,1,1.57,4.88,21.2,21.2,0,0,1-1.13,6.75c-.56,1.9-1.18,3.78-1.68,5.69a8.05,8.05,0,0,0-.15,4,3.47,3.47,0,0,0,3.21,2.83,20.34,20.34,0,0,0,3.4-.09c1.42-.14,2.84-.39,4.25-.62,1.73-.27,3.44-.63,5.17-.86a21.32,21.32,0,0,1,7.43,0,7.89,7.89,0,0,1,2.27.89,3.26,3.26,0,0,1,1.52,3.64c-.17.78-.47,1.53-.71,2.3a3.59,3.59,0,0,0-.12.35,1,1,0,0,0,.52,1.39c.78.54,1.61,1,2.36,1.62a4.77,4.77,0,0,1,1,6.29,6,6,0,0,1-2.16,1.66c-1,.59-1.08,1-.23,1.84a15.56,15.56,0,0,1,1.85,2,3.85,3.85,0,0,1,0,4.39,5.83,5.83,0,0,1-1.85,1.53c-.37.23-.75.46-1.11.7a1.43,1.43,0,0,0-.44,2.16c.2.33.45.65.66,1a3.06,3.06,0,0,1-.44,4.07,11.43,11.43,0,0,1-4.4,2.69,32.29,32.29,0,0,1-8,1.74,59.91,59.91,0,0,1-9,.28c-2.57-.1-5.14-.24-7.7-.47A45.72,45.72,0,0,1,77,113.18c-1.84-.69-3.64-1.47-5.47-2.17a18.41,18.41,0,0,0-5.38-1.2c-.9-.07-1.8-.1-2.73-.16V86.34c.63-.08,1.25-.13,1.87-.24a6.11,6.11,0,0,0,4-2.85c.74-1.13,1.4-2.31,2.08-3.48a25.43,25.43,0,0,1,3.16-4.08,43.59,43.59,0,0,0,4.74-6.62,61.19,61.19,0,0,0,4.33-8.5,37.8,37.8,0,0,0,2.19-6.81,8.54,8.54,0,0,1,.29-1,3.23,3.23,0,0,1,2.33-2.3Z" transform="translate(-22.21 -15.03)"/></svg>