<svg id="Layer_1" data-name="Layer 1" xmlns="http://www.w3.org/2000/svg" viewBox="0 0 588.82 136.97"><defs><style>.cls-1{fill:#217d9d;}.cls-2{fill:#3cb5ab;}.cls-3{fill:#fff;stroke:#3cb5ab;stroke-miterlimit:10;stroke-width:1.34px;}</style></defs><title>smijt een feit button</title><rect class="cls-1" y="10.79" width="588.82" height="126.19" rx="54.55"/><rect class="cls-2" width="588.82" height="126.19" rx="54.55"/><path class="cls-3" d="M116.72,74.76a156.14,156.14,0,0,0-24.81,7.95c-1.25.53-2.47,1.1-3.89,1.72.12-2.71.22-5.24.34-7.77,0-.14.15-.26.19-.4A5.27,5.27,0,0,0,89,74.62c0-.76.21-1.06,1-1.2,2.79-.55,5.57-1.15,8.36-1.71,1.45-.29,1.92-.84,1.7-2.34Q99.15,63.66,98.24,58a1.5,1.5,0,0,0-1.43-1.4,21.23,21.23,0,0,0-3.09.1,72.61,72.61,0,0,0-20.17,4.81,1,1,0,0,1-.43.11c-.72-.09-.92.37-.94.93a31.44,31.44,0,0,0-.05,3.63A117.42,117.42,0,0,0,74.61,84a48.56,48.56,0,0,0,2.15,6.54A4.22,4.22,0,0,0,81,93.19a27.39,27.39,0,0,0,4.8-.26c4.52-.87,9-1.89,13.5-2.87,2.69-.59,5.38-1.22,8.06-1.84.8-.18,1.15.11,1.08.94s-.09,1.76-.23,2.62c-.5,3-1,6-2.5,8.69a4.63,4.63,0,0,1-3.55,2.56c-2.67.33-5.34.71-8,.86-3.39.19-6.79.15-10.18.22-1.83,0-2.68.91-2.43,2.71a36.87,36.87,0,0,0,1.08,5c.35,1.23,1,1.54,2.26,1.47,2.52-.12,5-.32,7.54-.34,5.64-.06,11.28.07,16.92-.07a82.49,82.49,0,0,0,8.84-.91,2.91,2.91,0,0,0,2.54-2.52,19.77,19.77,0,0,0,.45-3.32q.24-11.64.36-23.28a34.87,34.87,0,0,0-.36-4.89C120.75,74.78,119.76,74.05,116.72,74.76Z" transform="translate(-27.94 -23.03)"/><path class="cls-3" d="M170.05,105.89q-2.33-12.78-4.67-25.57c-.33-1.82-.74-3.62-1.19-5.42-.25-1-.84-1.92-2-1.9-2.64,0-5.28,0-7.9.27-1.76.15-2.27.83-2.54,2.56-.82,5.15-1.62,10.3-2.45,15.44a1.12,1.12,0,1,1-2.23.14c-.57-2.26-1.14-4.52-1.63-6.8a39.14,39.14,0,0,0-2.36-8.28,3.19,3.19,0,0,0-3.41-2.14c-3.05.24-6.11.43-9.16.63-.2,0-.45.09-.59,0-.68-.41-.79.06-.87.54a5.56,5.56,0,0,0-.05.91c-.19,7.07-.32,14.13-.58,21.19-.16,4.48-.5,9-.79,13.43-.08,1.27.24,2.1,1.44,2.39a59.19,59.19,0,0,0,6.07,1,2.07,2.07,0,0,0,2.06-1.25,5.13,5.13,0,0,0,.58-1.52c.29-2,.57-4.08.74-6.13.16-1.73.17-3.47.24-5.21l.17,0c.28.79.56,1.57.83,2.35a52.52,52.52,0,0,0,4.16,9.87,3.15,3.15,0,0,0,2.66,1.79,32,32,0,0,0,3.25,0,4.34,4.34,0,0,0,4.28-3.55c.5-2,.94-4,1.34-6,.23-1.2.33-2.43.5-3.73.11.13.17.16.18.21,1.27,4.34,2.54,8.67,3.78,13,.34,1.18.79,1.68,2,1.57,2.72-.27,5.56.2,8-1.59,1-.7,1.45-1.12,1.24-2.34C170.8,109.76,170.41,107.83,170.05,105.89Z" transform="translate(-27.94 -23.03)"/><path class="cls-3" d="M206.88,82.38a31.41,31.41,0,0,0-1.47-8.21,1.23,1.23,0,0,0-1.27-1c-4.54.17-9.09.32-13.63.57-.52,0-1.54-.15-1.45,1,.17,2.09.21,4.18.4,6.26.12,1.43.55,1.74,2,1.78.87,0,1.74.09,2.55.14.09.9.16,1.68.25,2.46.26,2.29.56,4.58.78,6.87.65,7.14.81,14.34,2.44,21.38a2,2,0,0,1-.37,1.65,7.42,7.42,0,0,1-2.59,1.7,56.89,56.89,0,0,1-19.36,2.56c-.77,0-1.25.23-1.29,1-.07,1.48-.17,3-.13,4.45s.56,2.12,2.12,2.43a39.64,39.64,0,0,0,16,.28,37,37,0,0,0,10.81-3.6c3-1.69,4.13-4.31,4-7.58-.08-2.56-.25-5.12-.48-7.68q-.74-8.48-1.56-16.93c-.25-2.55-.57-5.1-.86-7.71.56-.11,1.22-.21,1.86-.37A1.48,1.48,0,0,0,206.88,82.38Z" transform="translate(-27.94 -23.03)"/><path class="cls-3" d="M238.46,74.58c-.24-1.4-.56-1.76-2-1.93a39.94,39.94,0,0,0-6.43-.53c-5.35.25-10.7.73-16,1.15-1.83.14-3.64.59-5.47,0-.13,0-.48.22-.56.41a2.08,2.08,0,0,0-.06.9c.13,2.3.3,4.6.42,6.9.08,1.78.65,2.23,2.43,1.88a14.83,14.83,0,0,1,2.77-.46c3,0,2.38-.45,2.78,2.26.51,3.5.77,7,1,10.58.36,6,.6,12.11.87,18.17.07,1.53.59,2.36,2.12,2.6a29.55,29.55,0,0,0,4.79.37c1.93,0,2.75-.83,3-2.76a28.75,28.75,0,0,0,.21-4.35c-.22-4.69-.53-9.38-.81-14.07-.2-3.5-.12-7-1.22-10.65,1.42-.31,2.73-.68,4.07-.87,2.09-.3,4.21-.51,6.32-.72s2.71-1,2.7-3a6.73,6.73,0,0,0-.07-1C239,77.81,238.74,76.19,238.46,74.58Z" transform="translate(-27.94 -23.03)"/><path class="cls-3" d="M175.36,115c1.59-.18,3.18-.48,4.78-.58,3.62-.23,7.26-.24,10.81-1.12a1.27,1.27,0,0,0,.85-.64,5.65,5.65,0,0,0,.33-2.11,17.26,17.26,0,0,0-.59-2.84c-.36-1.42-.62-1.62-2.09-1.57-1.21,0-2.41.11-3.6.17-1.9-7.63-2.68-15.45-5.3-22.82,1.7-.23,3.26-.4,4.81-.66,1.28-.2,1.61-.58,1.41-1.84q-.5-3.09-1.21-6.15c-.39-1.69-.79-1.86-2.53-1.58s-3.23.5-4.85.62c-2,.15-4,.15-6,.26a9.11,9.11,0,0,0-4.62,1.15c-.43.27-.78.51-.57,1.14.63,1.8,1.22,3.62,1.81,5.43.39,1.19.55,1.32,1.83,1.26l3.26-.18q2.46,12.18,4.86,24.12c-1.48.08-2.81.1-4.12.23s-1.59.5-1.57,1.76c0,1.42.1,2.85.21,4.27S173.9,115.11,175.36,115Z" transform="translate(-27.94 -23.03)"/><path class="cls-3" d="M338.71,100.11c.37.52.62.83.83,1.17,2,3.24,3.88,6.51,5.88,9.74,1,1.59,2.07,3.12,3.16,4.65a2.66,2.66,0,0,0,2.43,1.07c2-.07,3.95-.11,5.92-.08,2.22,0,3.11-.54,3.39-2.76.53-4.07,1-8.15,1.29-12.24.31-5,.33-10,.5-15.08.13-4,.27-8.08.48-12.11a2.74,2.74,0,0,0-1.77-3,30.74,30.74,0,0,0-3-1.2,3.09,3.09,0,0,0-4.1,1.71,10.63,10.63,0,0,0-1.15,3.3c-.71,4.85-1.32,9.71-1.9,14.58-.21,1.76-.23,3.55-.34,5.33h-.21c-.19-.52-.36-1.05-.56-1.56-2-5.05-3.95-10.1-6-15.14-.77-1.91-1.79-3.73-2.5-5.67a7.75,7.75,0,0,0-1.91-3.5,2.15,2.15,0,0,0-1.2-.58c-3.23,0-6.47,0-9.7,0-.71,0-.81.38-.76,1,.18,2.25.45,4.49.5,6.73.24,10.34.41,20.68.63,31,.05,2.28.15,4.57.32,6.84a1.85,1.85,0,0,0,1.85,2,34.86,34.86,0,0,0,4,.34c2.1.08,2.92-.55,3.32-2.63a38,38,0,0,0,.63-9.76C338.64,102.88,338.71,101.6,338.71,100.11Z" transform="translate(-27.94 -23.03)"/><path class="cls-3" d="M293,75.19q-.12,16.59-.24,33.18c0,.67,0,1.35.07,2a2.48,2.48,0,0,0,2,2.4,9.73,9.73,0,0,0,2.57.32c4-.17,7.92-.43,11.88-.61,3.18-.15,6.37-.36,9.55-.26a1.63,1.63,0,0,0,1.88-1.38,42.38,42.38,0,0,0,1.11-4.3,9,9,0,0,0,.06-2.59,1.69,1.69,0,0,0-1.8-1.55,8.73,8.73,0,0,0-1.44.11c-2.39.32-4.77.77-7.18,1s-4.63.14-7,.19c-.72,0-1-.32-1-1.07q.14-2.22.21-4.44c0-.69.35-1,1-1,1.91.06,3.81.11,5.71.14,3,.05,6.05.2,9.07.06,2.09-.09,3.1-1.18,3.55-3.23a20.32,20.32,0,0,0-.4-8.43c-.21-1.07-.88-1.39-1.95-1.23-.38.06-.76.15-1.14.22-5.34,1-10.69,2-16.18,3.06a17.28,17.28,0,0,0,.19-2,2.17,2.17,0,0,1,2-2.36c3-.6,6.06-1.24,9.09-1.85,1.77-.35,3.55-.63,5.32-1,1.44-.31,2.19-1,2-2.17-.34-2.29-.84-4.56-1.34-6.82a1.3,1.3,0,0,0-1.64-1c-3.93.58-7.85,1.16-11.77,1.71q-6.74.94-13.49,1.82C293.14,74.26,293,74.57,293,75.19Z" transform="translate(-27.94 -23.03)"/><path class="cls-3" d="M257.87,77.31q-.11,16.59-.24,33.18c0,.68,0,1.36.08,2a2.48,2.48,0,0,0,2,2.41,9.8,9.8,0,0,0,2.58.31c4-.17,7.91-.43,11.87-.61,3.19-.14,6.38-.35,9.56-.26a1.61,1.61,0,0,0,1.87-1.37,40.56,40.56,0,0,0,1.12-4.3,8.65,8.65,0,0,0,0-2.59,1.67,1.67,0,0,0-1.79-1.55,8.64,8.64,0,0,0-1.44.1c-2.4.33-4.78.78-7.18,1s-4.64.14-7,.19c-.72,0-1.05-.32-1-1.07.09-1.48.15-3,.21-4.44,0-.69.35-1,1-.95,1.9.06,3.8.11,5.7.13,3,0,6.06.21,9.08.07,2.08-.1,3.1-1.18,3.55-3.23a20.49,20.49,0,0,0-.4-8.43c-.22-1.07-.88-1.4-1.95-1.23-.39,0-.76.15-1.14.22L268.31,90a20,20,0,0,0,.19-2,2.17,2.17,0,0,1,2-2.36c3-.61,6.05-1.25,9.09-1.85,1.76-.36,3.55-.63,5.31-1,1.45-.31,2.19-1,2-2.17-.34-2.29-.84-4.55-1.34-6.81-.17-.82-.82-1.09-1.64-1-3.92.57-7.84,1.16-11.76,1.7q-6.75.94-13.49,1.82C258,76.39,257.88,76.7,257.87,77.31Z" transform="translate(-27.94 -23.03)"/><path class="cls-3" d="M418.6,120.17c4.87.07,9.74.07,14.61.07,2.36,0,4.73,0,7.1-.13a3.06,3.06,0,0,0,3.27-3.13c.2-1.92.31-3.87.36-5.8,0-1.74-.5-2.19-2.22-2-3.13.41-6.25.86-9.38,1.28-1,.14-2.11.25-3.48.4.69-2.69,1.31-5.1,1.91-7.52a1.94,1.94,0,0,1,2.06-1.6c1.15-.06,2.29-.17,3.44-.22,2.86-.14,5.72-.24,8.58-.39,1.52-.08,2.38-.59,2.48-1.78a74,74,0,0,0,.3-8.15c-.07-2-.84-2.41-2.82-2.12-3.38.49-6.76,1-10.15,1.46-1.45.2-2.91.28-4.54.44.56-3,1.05-5.68,1.55-8.36.27-1.42.43-1.62,1.9-1.81,1.83-.24,3.66-.42,5.5-.59,2.48-.22,5-.33,7.46-.64,1.72-.21,2.43-.88,2.57-2.62a67.8,67.8,0,0,0,.17-7.27c0-1.37-.7-1.83-2.07-1.8-2.44.06-4.88.08-7.3.24-5.83.38-11.66.84-17.49,1.25-.61,0-.77.33-.76.89,0,1.44.1,2.88,0,4.31-.25,4.14-.49,8.28-.87,12.4-.42,4.49-.83,9-1.53,13.42-.89,5.58-2.07,11.11-3.12,16.67C415.7,119.43,416.2,120.13,418.6,120.17Z" transform="translate(-27.94 -23.03)"/><path class="cls-3" d="M460.09,77.89c2.22-.21,4.44-.5,6.66-.71s4.31-.32,6.49-.48c-.14,3.91-.38,7.55-.39,11.19,0,7.7.12,15.4.19,23.09,0,2.47,0,4.93.1,7.4.06,1.41.73,2,2.14,1.78,2.53-.36,5.06-.81,7.58-1.27a2.12,2.12,0,0,0,1.8-2.08,28.65,28.65,0,0,0,.07-3.34c-.28-6.8-.66-13.6-.89-20.4-.15-4.43-.14-8.86-.09-13.29,0-2.1.69-2.62,2.76-2.7.36,0,.72-.06,1.08-.11,4.09-.62,8.18-1.27,12.28-1.87,3.13-.46,3.36-.69,2.92-3.83-.26-1.91-.54-3.84-.94-5.73-.29-1.36-.84-1.55-2.16-1.17a11.73,11.73,0,0,1-2.21.37c-1,.09-2,.09-3.06.16l-8.45.66c-6.19.5-12.38,1-18.58,1.49-2.78.22-5.57.4-8.35.5-.67,0-1.13-.11-1.1.8.07,2.6.06,5.2.15,7.79C458.14,77.61,458.63,78,460.09,77.89Z" transform="translate(-27.94 -23.03)"/><path class="cls-3" d="M418.66,91.8a8.05,8.05,0,0,0,.08-4c-.29-.8-.44-1.65-.66-2.48-.3-1.11-.77-1.4-1.88-1.1l-16.72,4.58-2.67.72c-.23-1.48-.47-2.83-.62-4.19a1,1,0,0,1,.55-.75,19.47,19.47,0,0,1,2.69-.94q8.69-2.24,17.39-4.42a2,2,0,0,0,1.67-2c.08-1.67.21-3.35.22-5,0-2.44-1-3.31-3.41-2.92-2,.34-4.07.77-6.08,1.23-4.42,1-8.81,2.13-13.23,3.14-2.94.67-5.94,1.12-8.86,1.88-2.08.53-2.05.68-2,2.8,0,.75,0,1.51.07,2.26.18,5.56.4,11.11.52,16.67.11,5,0,10,.2,15,.1,2.58.65,5.13.87,7.71.1,1.11.83.94,1.39.83,2.12-.43,4.22-1,6.33-1.45a2.15,2.15,0,0,0,1.89-2.16c.26-3.61.61-7.21.8-10.82.12-2.29,0-4.58,0-7.11,4.66-1.41,9.54-2.85,14.4-4.36,2.09-.65,4.15-1.43,6.2-2.21C418.15,92.5,418.61,92.12,418.66,91.8Z" transform="translate(-27.94 -23.03)"/><path class="cls-3" d="M450.42,94.85c1.15,0,2.29-.14,3.7-.23.18,5.33.35,10.6.53,15.95-1.92-.13-3.58-.29-5.25-.33s-2.1.3-2.38,2c-.35,2.14-.6,4.29-.85,6.45-.2,1.78.38,2.47,2.19,2.66a81.15,81.15,0,0,0,15.27-.28,10.94,10.94,0,0,0,1.92-.46,3.14,3.14,0,0,0,2.49-2.74c.25-1.66.42-3.32.64-5a1.46,1.46,0,0,0-1.29-1.78,30.15,30.15,0,0,0-3.42-.43c-1.27-.1-1.43-.26-1.26-1.54s.31-2.67.43-4q.41-4.76.77-9.53A1.1,1.1,0,0,1,465,94.39c1-.15,2-.35,3-.54,2-.38,2.77-1.22,2.83-3.19q.14-4.39.11-8.78c0-1.95-.46-2.28-2.42-2s-4,.49-6,.75L451.1,82.07c-.66.08-1,.3-1.1,1.08-.26,3.47-.6,6.94-.88,10.41C449.05,94.5,449.45,94.88,450.42,94.85Z" transform="translate(-27.94 -23.03)"/><path class="cls-3" d="M581,82.59c-1.38-7.67-3.82-15-8.62-21.25-5.41-7.09-12.49-10.52-21.51-9.12a60.27,60.27,0,0,0-21.43,7.59c-4.06,2.39-7.65,5.34-9.23,9.92a46.89,46.89,0,0,0-2.42,9.93c-.92,8,0,16.09,1.3,24,1,6.55,1.26,12.78-2,18.77a5.15,5.15,0,0,0-.53,2,1.45,1.45,0,0,0,1.73,1.74,8.06,8.06,0,0,0,1.74-.37c2.81-.79,5.6-1.66,8.42-2.39,3.33-.87,6.72-1.57,10.11-.41a43,43,0,0,0,15.14,2c3.32-.33,6.65-.54,9.94-1,4.39-.64,8.53-2,11.88-5.11,4.51-4.24,6.54-9.55,7-15.61A83.61,83.61,0,0,0,581,82.59ZM541.48,71.94c.59-4.49,4.31-6.49,7.93-6.79a2.33,2.33,0,0,1,1.76,1.31,28.13,28.13,0,0,1,1.51,6.34,61.63,61.63,0,0,1-2.3,21.52,2.13,2.13,0,0,1-1.13,1.14,27.51,27.51,0,0,1-3,1c-.34-1.66-.62-3.21-1-4.76-1.14-5-2.37-10-3.44-15A14.66,14.66,0,0,1,541.48,71.94Zm4.5,33.38a1.71,1.71,0,0,1,1.16-.8c2.71-.47,5.69,2.36,5.44,5.09-.18,1.93-2.12,3.41-4.47,3.41a3.16,3.16,0,0,1-3.28-3.55A15.11,15.11,0,0,1,546,105.32Z" transform="translate(-27.94 -23.03)"/></svg>